<?xml version="1.0" encoding="UTF-8" standalone="no"?>
<!-- Generator: Adobe Illustrator 19.0.0, SVG Export Plug-In . SVG Version: 6.00 Build 0)  -->

<svg
   xmlns:dc="http://purl.org/dc/elements/1.1/"
   xmlns:cc="http://creativecommons.org/ns#"
   xmlns:rdf="http://www.w3.org/1999/02/22-rdf-syntax-ns#"
   xmlns:svg="http://www.w3.org/2000/svg"
   xmlns="http://www.w3.org/2000/svg"
   xmlns:sodipodi="http://sodipodi.sourceforge.net/DTD/sodipodi-0.dtd"
   xmlns:inkscape="http://www.inkscape.org/namespaces/inkscape"
   version="1.1"
   id="Layer_1"
   x="0px"
   y="0px"
   viewBox="0 0 500.523 500.523"
   style="enable-background:new 0 0 500.523 500.523;"
   xml:space="preserve"
   sodipodi:docname="cashier-machine.svg"
   inkscape:version="0.92.4 (5da689c313, 2019-01-14)"><metadata
   id="metadata185"><rdf:RDF><cc:Work
       rdf:about=""><dc:format>image/svg+xml</dc:format><dc:type
         rdf:resource="http://purl.org/dc/dcmitype/StillImage" /></cc:Work></rdf:RDF></metadata><defs
   id="defs183" /><sodipodi:namedview
   pagecolor="#ffffff"
   bordercolor="#666666"
   borderopacity="1"
   objecttolerance="10"
   gridtolerance="10"
   guidetolerance="10"
   inkscape:pageopacity="0"
   inkscape:pageshadow="2"
   inkscape:window-width="1920"
   inkscape:window-height="996"
   id="namedview181"
   showgrid="false"
   inkscape:zoom="0.47150679"
   inkscape:cx="-59.384086"
   inkscape:cy="250.26151"
   inkscape:window-x="0"
   inkscape:window-y="48"
   inkscape:window-maximized="1"
   inkscape:current-layer="Layer_1" />



















































<g
   id="g150">
</g>
<g
   id="g152">
</g>
<g
   id="g154">
</g>
<g
   id="g156">
</g>
<g
   id="g158">
</g>
<g
   id="g160">
</g>
<g
   id="g162">
</g>
<g
   id="g164">
</g>
<g
   id="g166">
</g>
<g
   id="g168">
</g>
<g
   id="g170">
</g>
<g
   id="g172">
</g>
<g
   id="g174">
</g>
<g
   id="g176">
</g>
<g
   id="g178">
</g>
<g
   id="g4857"><ellipse
     style="stroke-width:1.014974;fill:#87aade"
     ry="246.01979"
     rx="253.44279"
     cy="254.50323"
     cx="253.44281"
     id="path263" /><path
     inkscape:connector-curvature="0"
     id="path270"
     d="M 487.3686,153.10162 267.85299,105.11334 261.24361,95.859433 228.77682,406.4063 399.5503,459.23052 A 253.44279,246.01979 0 0 0 510.851,255.82623 253.44279,246.01979 0 0 0 487.3686,153.10162 Z"
     style="fill:#220055;stroke-width:1.014974;opacity:0.373" /><g
     transform="matrix(0.66101722,0,0,0.66101722,88.015319,89.075743)"
     id="g261"><path
       inkscape:connector-curvature="0"
       style="fill:#f0c960"
       d="m 467.262,240.262 4,-2 h -440 l -27.6,176 h 0.4 494 0.4 z"
       id="path2" /><g
       id="g8">
	<path
   inkscape:connector-curvature="0"
   style="fill:#ffc52f"
   d="m 496.062,419.062 c -1.6,-7.2 -9.2,-12.8 -16.8,-12.8 h -463.2 c -7.6,0 -13.2,5.6 -14.4,12.8 0,0.8 0.8,2 0.8,2.8 v 58.8 c 0,8.8 5.2,17.6 14,17.6 h 463.2 c 8.8,0 18.8,-8.8 18.8,-17.6 v -58.8 c -0.4,-1.2 -2,-2 -2.4,-2.8 z"
   id="path4" />
	<path
   inkscape:connector-curvature="0"
   style="fill:#ffc52f"
   d="m 470.062,139.062 c 0,-8.8 -9.6,-12.8 -18.4,-12.8 h -408.4 c -8.8,0 -13.2,4.4 -13.2,12.8 v 99.2 h 440 z"
   id="path6" />
</g><path
       inkscape:connector-curvature="0"
       style="fill:#f4efef"
       d="m 170.062,182.262 v -104 h -84 v 104 z"
       id="path10" /><path
       inkscape:connector-curvature="0"
       style="fill:#e8e3e3"
       d="m 254.062,78.262 h 164 v -72 h -164 z"
       id="path12" /><rect
       x="318.06201"
       y="74.262001"
       style="fill:#aeb1b4"
       width="32"
       height="52"
       id="rect14" /><polygon
       style="fill:#acd9ea"
       points="222.062,146.262 222.062,146.662 222.062,222.262 450.062,222.262 450.062,146.262 "
       id="polygon16" /><path
       inkscape:connector-curvature="0"
       style="fill:#f0c960"
       d="m 310.062,449.862 c 0,-8.8 -7.2,-15.6 -15.6,-15.6 h -100.4 c -8.8,0 -15.6,7.2 -15.6,15.6 v 4.4 c 0,8.8 7.2,15.6 15.6,15.6 h 100.4 c 8.8,0 15.6,-7.2 15.6,-15.6 z"
       id="path18" /><rect
       x="266.06201"
       y="22.261999"
       style="fill:#cdeef9"
       width="136"
       height="40"
       id="rect20" /><g
       id="g46">
	<rect
   x="250.062"
   y="274.26199"
   style="fill:#efdc81"
   width="20"
   height="20"
   id="rect22" />
	<rect
   x="290.06201"
   y="274.26199"
   style="fill:#efdc81"
   width="20"
   height="20"
   id="rect24" />
	<rect
   x="330.06201"
   y="278.26199"
   style="fill:#efdc81"
   width="16"
   height="20"
   id="rect26" />
	<rect
   x="366.06201"
   y="274.26199"
   style="fill:#efdc81"
   width="20"
   height="20"
   id="rect28" />
	<rect
   x="406.06201"
   y="278.26199"
   style="fill:#efdc81"
   width="20"
   height="20"
   id="rect30" />
	<rect
   x="246.062"
   y="318.26199"
   style="fill:#efdc81"
   width="20"
   height="20"
   id="rect32" />
	<rect
   x="290.06201"
   y="314.26199"
   style="fill:#efdc81"
   width="20"
   height="20"
   id="rect34" />
	<rect
   x="330.06201"
   y="314.26199"
   style="fill:#efdc81"
   width="16"
   height="20"
   id="rect36" />
	<rect
   x="370.06201"
   y="318.26199"
   style="fill:#efdc81"
   width="20"
   height="20"
   id="rect38" />
	<rect
   x="410.06201"
   y="318.26199"
   style="fill:#efdc81"
   width="20"
   height="20"
   id="rect40" />
	<rect
   x="210.062"
   y="274.26199"
   style="fill:#efdc81"
   width="20"
   height="20"
   id="rect42" />
	<rect
   x="210.062"
   y="314.26199"
   style="fill:#efdc81"
   width="20"
   height="20"
   id="rect44" />
</g><g
       id="g66">
	<rect
   x="106.062"
   y="278.26199"
   style="fill:#f4efef"
   width="20"
   height="20"
   id="rect48" />
	<rect
   x="146.062"
   y="278.26199"
   style="fill:#f4efef"
   width="20"
   height="20"
   id="rect50" />
	<rect
   x="106.062"
   y="314.26199"
   style="fill:#f4efef"
   width="20"
   height="20"
   id="rect52" />
	<rect
   x="146.062"
   y="314.26199"
   style="fill:#f4efef"
   width="20"
   height="20"
   id="rect54" />
	<rect
   x="106.062"
   y="358.26199"
   style="fill:#f4efef"
   width="20"
   height="16"
   id="rect56" />
	<rect
   x="146.062"
   y="358.26199"
   style="fill:#f4efef"
   width="20"
   height="16"
   id="rect58" />
	<rect
   x="62.062"
   y="274.26199"
   style="fill:#f4efef"
   width="20"
   height="20"
   id="rect60" />
	<rect
   x="66.061996"
   y="314.26199"
   style="fill:#f4efef"
   width="20"
   height="20"
   id="rect62" />
	<rect
   x="66.061996"
   y="358.26199"
   style="fill:#f4efef"
   width="20"
   height="16"
   id="rect64" />
</g><path
       inkscape:connector-curvature="0"
       d="m 480.462,500.262 h -460.4 c -10.8,0 -19.6,-8.8 -19.6,-19.6 v -60.4 c 0,-10.8 8.8,-19.6 19.6,-19.6 h 460.4 c 10.8,0 19.6,8.8 19.6,19.6 v 60.4 c 0,10.8 -8.8,19.6 -19.6,19.6 z m -460.8,-92 c -6.4,0 -11.6,5.2 -11.6,11.6 v 60.4 c 0,6.4 5.2,11.6 11.6,11.6 h 460.4 c 6.4,0 11.6,-5.2 11.6,-11.6 v 0 -60.4 c 0,-6.4 -5.2,-11.6 -11.6,-11.6 z"
       id="path68" /><path
       inkscape:connector-curvature="0"
       d="m 496.062,418.662 c -2,0 -3.6,-1.2 -4,-3.2 l -28,-170.8 h -432 l -24.4,168.4 c -0.4,2 -2.4,3.6 -4.4,3.2 -2,-0.4 -3.6,-2.4 -3.2,-4.4 l 24.8,-171.6 c 0.4,-2 2,-3.6 4,-3.6 h 438.8 c 2,0 3.6,1.6 4,3.2 l 28.8,174.4 c 0.4,2 -1.2,4.4 -3.2,4.4 -0.8,0 -0.8,0 -1.2,0 z"
       id="path70" /><path
       inkscape:connector-curvature="0"
       d="m 28.062,238.262 c -2.4,0 -4,-1.6 -4,-4 v -99.2 c 0,-3.2 0.8,-5.6 2.8,-7.6 4,-3.6 10.4,-3.6 16.4,-3.6 1.2,0 2.4,0 3.6,0 h 34.8 c 2.4,0 4,1.6 4,4 0,2.4 -1.6,4 -4,4 h -34.8 c -1.2,0 -2.8,0 -4,0 -4,0 -9.2,-0.4 -10.8,1.2 0,0 -0.4,0.4 -0.4,1.6 v 99.6 c 0.4,2.4 -1.2,4 -3.6,4 z"
       id="path72" /><path
       inkscape:connector-curvature="0"
       d="m 468.062,238.262 c -2.4,0 -4,-1.6 -4,-4 v -99.2 c 0,-2.4 -0.4,-3.2 -0.4,-3.2 -0.4,0 -2.4,0 -4,0 -1.2,0 -2.4,0 -4,0 h -281.6 c -2.4,0 -4,-1.6 -4,-4 0,-2.4 1.6,-4 4,-4 h 281.6 c 1.2,0 2.4,0 3.6,0 4,0 7.6,-0.4 10,2.4 2.4,2.4 2.8,6 2.8,8.8 v 99.2 c 0,2.4 -1.6,4 -4,4 z"
       id="path74" /><path
       inkscape:connector-curvature="0"
       d="m 168.062,188.262 h -84 c -2.4,0 -4,-1.6 -4,-4 v -104 c 0,-2.4 1.6,-4 4,-4 h 84 c 2.4,0 4,1.6 4,4 v 104 c 0,2.4 -1.6,4 -4,4 z m -80,-8 h 76 v -96 h -76 z"
       id="path76" /><path
       inkscape:connector-curvature="0"
       d="m 416.062,80.262 h -164 c -2.4,0 -4,-1.6 -4,-4 v -72 c 0,-2.4 1.6,-4 4,-4 h 164 c 2.4,0 4,1.6 4,4 v 72 c 0,2.4 -1.6,4 -4,4 z m -160,-8 h 156 v -64 h -156 z"
       id="path78" /><path
       inkscape:connector-curvature="0"
       d="m 348.062,132.262 h -32 c -2.4,0 -4,-1.6 -4,-4 v -50 c 0,-2.4 1.6,-4 4,-4 2.4,0 4,1.6 4,4 v 46 h 24 v -46 c 0,-2.4 1.6,-4 4,-4 2.4,0 4,1.6 4,4 v 50 c 0,2.4 -1.6,4 -4,4 z"
       id="path80" /><path
       inkscape:connector-curvature="0"
       d="m 448.062,224.262 h -228 c -2.4,0 -4,-1.6 -4,-4 v -76 c 0,-2.4 1.6,-4 4,-4 h 190 c 2.4,0 4,1.6 4,4 0,2.4 -1.6,4 -4,4 h -186 v 68 h 220 v -68 h -6 c -2.4,0 -4,-1.6 -4,-4 0,-2.4 1.6,-4 4,-4 h 10 c 2.4,0 4,1.6 4,4 v 76 c 0,2.4 -1.6,4 -4,4 z"
       id="path82" /><path
       inkscape:connector-curvature="0"
       d="m 296.462,472.262 h -100.4 c -10.8,0 -19.6,-8.8 -19.6,-19.6 v -4.4 c 0,-10.8 8.8,-19.6 19.6,-19.6 h 100.4 c 10.8,0 19.6,8.8 19.6,19.6 v 4.4 c 0,10.8 -8.8,19.6 -19.6,19.6 z m -100.8,-36 c -6.4,0 -11.6,5.2 -11.6,11.6 v 4.4 c 0,6.4 5.2,11.6 11.6,11.6 h 100.4 c 6.4,0 11.6,-5.2 11.6,-11.6 v 0 -4.4 c 0,-6.4 -5.2,-11.6 -11.6,-11.6 z"
       id="path84" /><path
       inkscape:connector-curvature="0"
       d="m 186.062,188.262 h -112 c -2.4,0 -4,-1.6 -4,-4 0,-2.4 1.6,-4 4,-4 h 112 c 2.4,0 4,1.6 4,4 0,2.4 -1.6,4 -4,4 z"
       id="path86" /><path
       inkscape:connector-curvature="0"
       d="m 186.062,208.262 h -112 c -2.4,0 -4,-1.6 -4,-4 0,-2.4 1.6,-4 4,-4 h 112 c 2.4,0 4,1.6 4,4 0,2.4 -1.6,4 -4,4 z"
       id="path88" /><path
       inkscape:connector-curvature="0"
       d="m 126.062,108.262 h -24 c -2.4,0 -4,-1.6 -4,-4 0,-2.4 1.6,-4 4,-4 h 24 c 2.4,0 4,1.6 4,4 0,2.4 -1.6,4 -4,4 z"
       id="path90" /><path
       inkscape:connector-curvature="0"
       d="m 126.062,128.262 h -24 c -2.4,0 -4,-1.6 -4,-4 0,-2.4 1.6,-4 4,-4 h 24 c 2.4,0 4,1.6 4,4 0,2.4 -1.6,4 -4,4 z"
       id="path92" /><path
       inkscape:connector-curvature="0"
       d="m 126.062,148.262 h -24 c -2.4,0 -4,-1.6 -4,-4 0,-2.4 1.6,-4 4,-4 h 24 c 2.4,0 4,1.6 4,4 0,2.4 -1.6,4 -4,4 z"
       id="path94" /><path
       inkscape:connector-curvature="0"
       d="m 126.062,168.262 h -24 c -2.4,0 -4,-1.6 -4,-4 0,-2.4 1.6,-4 4,-4 h 24 c 2.4,0 4,1.6 4,4 0,2.4 -1.6,4 -4,4 z"
       id="path96" /><path
       inkscape:connector-curvature="0"
       d="m 145.662,107.462 c -1.2,0 -2,-0.4 -2.8,-1.2 -0.8,-0.8 -1.2,-2 -1.2,-2.8 0,-1.2 0.4,-2 1.2,-2.8 1.6,-1.6 4.4,-1.6 5.6,0 0.8,0.8 1.2,1.6 1.2,2.8 0,1.2 -0.4,2 -1.2,2.8 -0.8,0.4 -2,1.2 -2.8,1.2 z"
       id="path98" /><path
       inkscape:connector-curvature="0"
       d="m 145.662,127.462 c -1.2,0 -2,-0.4 -2.8,-1.2 -0.8,-0.8 -1.2,-2 -1.2,-2.8 0,-1.2 0.4,-2 1.2,-2.8 1.6,-1.6 4.4,-1.6 5.6,0 0.8,0.8 1.2,1.6 1.2,2.8 0,1.2 -0.4,2 -1.2,2.8 -0.8,0.4 -2,1.2 -2.8,1.2 z"
       id="path100" /><path
       inkscape:connector-curvature="0"
       d="m 145.662,147.462 c -1.2,0 -2,-0.4 -2.8,-1.2 -0.8,-0.8 -1.2,-2 -1.2,-2.8 0,-1.2 0.4,-2 1.2,-2.8 1.6,-1.6 4.4,-1.6 5.6,0 0.8,0.8 1.2,1.6 1.2,2.8 0,1.2 -0.4,2 -1.2,2.8 -0.8,0.4 -2,1.2 -2.8,1.2 z"
       id="path102" /><path
       inkscape:connector-curvature="0"
       d="m 145.662,167.462 c -1.2,0 -2,-0.4 -2.8,-1.2 -0.8,-0.8 -1.2,-2 -1.2,-2.8 0,-1.2 0.4,-2 1.2,-2.8 1.6,-1.6 4,-1.6 5.6,0 0.8,0.8 1.2,1.6 1.2,2.8 0,1.2 -0.4,2 -1.2,2.8 -0.8,0.4 -2,1.2 -2.8,1.2 z"
       id="path104" /><path
       inkscape:connector-curvature="0"
       d="m 400.062,64.262 h -132 c -2.4,0 -4,-1.6 -4,-4 v -40 c 0,-2.4 1.6,-4 4,-4 h 102 c 2.4,0 4,1.6 4,4 0,2.4 -1.6,4 -4,4 h -98 v 32 h 124 v -34 c 0,-2.4 1.6,-4 4,-4 2.4,0 4,1.6 4,4 v 38 c 0,2.4 -1.6,4 -4,4 z"
       id="path106" /><path
       inkscape:connector-curvature="0"
       d="m 268.062,300.262 h -20 c -2.4,0 -4,-1.6 -4,-4 v -20 c 0,-2.4 1.6,-4 4,-4 h 20 c 2.4,0 4,1.6 4,4 v 20 c 0,2.4 -1.6,4 -4,4 z m -16,-8 h 12 v -12 h -12 z"
       id="path108" /><path
       inkscape:connector-curvature="0"
       d="m 308.062,300.262 h -20 c -2.4,0 -4,-1.6 -4,-4 v -20 c 0,-2.4 1.6,-4 4,-4 h 20 c 2.4,0 4,1.6 4,4 v 20 c 0,2.4 -1.6,4 -4,4 z m -16,-8 h 12 v -12 h -12 z"
       id="path110" /><path
       inkscape:connector-curvature="0"
       d="m 348.062,300.262 h -20 c -2.4,0 -4,-1.6 -4,-4 v -20 c 0,-2.4 1.6,-4 4,-4 h 20 c 2.4,0 4,1.6 4,4 v 20 c 0,2.4 -1.6,4 -4,4 z m -16,-8 h 12 v -12 h -12 z"
       id="path112" /><path
       inkscape:connector-curvature="0"
       d="m 388.062,300.262 h -20 c -2.4,0 -4,-1.6 -4,-4 v -20 c 0,-2.4 1.6,-4 4,-4 h 20 c 2.4,0 4,1.6 4,4 v 20 c 0,2.4 -1.6,4 -4,4 z m -16,-8 h 12 v -12 h -12 z"
       id="path114" /><path
       inkscape:connector-curvature="0"
       d="m 428.062,300.262 h -20 c -2.4,0 -4,-1.6 -4,-4 v -20 c 0,-2.4 1.6,-4 4,-4 h 20 c 2.4,0 4,1.6 4,4 v 20 c 0,2.4 -1.6,4 -4,4 z m -16,-8 h 12 v -12 h -12 z"
       id="path116" /><path
       inkscape:connector-curvature="0"
       d="m 268.062,340.262 h -20 c -2.4,0 -4,-1.6 -4,-4 v -20 c 0,-2.4 1.6,-4 4,-4 h 20 c 2.4,0 4,1.6 4,4 v 20 c 0,2.4 -1.6,4 -4,4 z m -16,-8 h 12 v -12 h -12 z"
       id="path118" /><path
       inkscape:connector-curvature="0"
       d="m 308.062,340.262 h -20 c -2.4,0 -4,-1.6 -4,-4 v -20 c 0,-2.4 1.6,-4 4,-4 h 20 c 2.4,0 4,1.6 4,4 v 20 c 0,2.4 -1.6,4 -4,4 z m -16,-8 h 12 v -12 h -12 z"
       id="path120" /><path
       inkscape:connector-curvature="0"
       d="m 348.062,340.262 h -20 c -2.4,0 -4,-1.6 -4,-4 v -20 c 0,-2.4 1.6,-4 4,-4 h 20 c 2.4,0 4,1.6 4,4 v 20 c 0,2.4 -1.6,4 -4,4 z m -16,-8 h 12 v -12 h -12 z"
       id="path122" /><path
       inkscape:connector-curvature="0"
       d="m 388.062,340.262 h -20 c -2.4,0 -4,-1.6 -4,-4 v -20 c 0,-2.4 1.6,-4 4,-4 h 20 c 2.4,0 4,1.6 4,4 v 20 c 0,2.4 -1.6,4 -4,4 z m -16,-8 h 12 v -12 h -12 z"
       id="path124" /><path
       inkscape:connector-curvature="0"
       d="m 428.062,340.262 h -20 c -2.4,0 -4,-1.6 -4,-4 v -20 c 0,-2.4 1.6,-4 4,-4 h 20 c 2.4,0 4,1.6 4,4 v 20 c 0,2.4 -1.6,4 -4,4 z m -16,-8 h 12 v -12 h -12 z"
       id="path126" /><path
       inkscape:connector-curvature="0"
       d="m 228.062,300.262 h -20 c -2.4,0 -4,-1.6 -4,-4 v -20 c 0,-2.4 1.6,-4 4,-4 h 20 c 2.4,0 4,1.6 4,4 v 20 c 0,2.4 -1.6,4 -4,4 z m -16,-8 h 12 v -12 h -12 z"
       id="path128" /><path
       inkscape:connector-curvature="0"
       d="m 228.062,340.262 h -20 c -2.4,0 -4,-1.6 -4,-4 v -20 c 0,-2.4 1.6,-4 4,-4 h 20 c 2.4,0 4,1.6 4,4 v 20 c 0,2.4 -1.6,4 -4,4 z m -16,-8 h 12 v -12 h -12 z"
       id="path130" /><path
       inkscape:connector-curvature="0"
       d="m 124.062,300.262 h -20 c -2.4,0 -4,-1.6 -4,-4 v -20 c 0,-2.4 1.6,-4 4,-4 h 20 c 2.4,0 4,1.6 4,4 v 20 c 0,2.4 -1.6,4 -4,4 z m -16,-8 h 12 v -12 h -12 z"
       id="path132" /><path
       inkscape:connector-curvature="0"
       d="m 164.062,300.262 h -20 c -2.4,0 -4,-1.6 -4,-4 v -20 c 0,-2.4 1.6,-4 4,-4 h 20 c 2.4,0 4,1.6 4,4 v 20 c 0,2.4 -1.6,4 -4,4 z m -16,-8 h 12 v -12 h -12 z"
       id="path134" /><path
       inkscape:connector-curvature="0"
       d="m 124.062,340.262 h -20 c -2.4,0 -4,-1.6 -4,-4 v -20 c 0,-2.4 1.6,-4 4,-4 h 20 c 2.4,0 4,1.6 4,4 v 20 c 0,2.4 -1.6,4 -4,4 z m -16,-8 h 12 v -12 h -12 z"
       id="path136" /><path
       inkscape:connector-curvature="0"
       d="m 164.062,340.262 h -20 c -2.4,0 -4,-1.6 -4,-4 v -20 c 0,-2.4 1.6,-4 4,-4 h 20 c 2.4,0 4,1.6 4,4 v 20 c 0,2.4 -1.6,4 -4,4 z m -16,-8 h 12 v -12 h -12 z"
       id="path138" /><path
       inkscape:connector-curvature="0"
       d="m 124.062,380.262 h -20 c -2.4,0 -4,-1.6 -4,-4 v -20 c 0,-2.4 1.6,-4 4,-4 h 20 c 2.4,0 4,1.6 4,4 v 20 c 0,2.4 -1.6,4 -4,4 z m -16,-8 h 12 v -12 h -12 z"
       id="path140" /><path
       inkscape:connector-curvature="0"
       d="m 164.062,380.262 h -20 c -2.4,0 -4,-1.6 -4,-4 v -20 c 0,-2.4 1.6,-4 4,-4 h 20 c 2.4,0 4,1.6 4,4 v 20 c 0,2.4 -1.6,4 -4,4 z m -16,-8 h 12 v -12 h -12 z"
       id="path142" /><path
       inkscape:connector-curvature="0"
       d="m 84.062,300.262 h -20 c -2.4,0 -4,-1.6 -4,-4 v -20 c 0,-2.4 1.6,-4 4,-4 h 20 c 2.4,0 4,1.6 4,4 v 20 c 0,2.4 -1.6,4 -4,4 z m -16,-8 h 12 v -12 h -12 z"
       id="path144" /><path
       inkscape:connector-curvature="0"
       d="m 84.062,340.262 h -20 c -2.4,0 -4,-1.6 -4,-4 v -20 c 0,-2.4 1.6,-4 4,-4 h 20 c 2.4,0 4,1.6 4,4 v 20 c 0,2.4 -1.6,4 -4,4 z m -16,-8 h 12 v -12 h -12 z"
       id="path146" /><path
       inkscape:connector-curvature="0"
       d="m 84.062,380.262 h -20 c -2.4,0 -4,-1.6 -4,-4 v -20 c 0,-2.4 1.6,-4 4,-4 h 20 c 2.4,0 4,1.6 4,4 v 20 c 0,2.4 -1.6,4 -4,4 z m -16,-8 h 12 v -12 h -12 z"
       id="path148" /></g></g></svg>