<?xml version="1.0" encoding="iso-8859-1"?>
<!-- Generator: Adobe Illustrator 19.0.0, SVG Export Plug-In . SVG Version: 6.00 Build 0)  -->
<svg version="1.1" id="Layer_1" xmlns="http://www.w3.org/2000/svg" xmlns:xlink="http://www.w3.org/1999/xlink" x="0px" y="0px"
	 viewBox="0 0 512 512" style="enable-background:new 0 0 512 512;" xml:space="preserve">
<circle style="fill:#FF8C8A;" cx="255.991" cy="255.991" r="255.991"/>
<path style="fill:#FA7876;" d="M402.957,465.625c-3.798,2.66-7.648,5.215-11.585,7.665l-0.543,0.332
	c-1.225,0.77-2.467,1.54-3.71,2.275l-0.175,0.105l-2.065,1.225c-1.138,0.665-2.293,1.313-3.448,1.978l-1.435,0.788
	c-1.242,0.7-2.503,1.383-3.763,2.048l-2.17,1.138c-1.05,0.56-2.118,1.103-3.185,1.645l-2.397,1.19l-2.66,1.277l-3.133,1.47
	l-2.66,1.19c-1.068,0.49-2.153,0.963-3.255,1.435l-2.118,0.892c-1.19,0.508-2.398,0.997-3.605,1.47l-2.293,0.91
	c-1.278,0.49-2.555,0.98-3.833,1.453l-1.593,0.595c-1.505,0.543-3.027,1.085-4.533,1.593l-1.453,0.49
	c-1.418,0.473-2.853,0.945-4.288,1.4l-1.75,0.543c-1.487,0.455-2.992,0.91-4.498,1.33l-1.313,0.385
	c-1.628,0.455-3.238,0.892-4.883,1.313l-1.348,0.35c-1.628,0.42-3.255,0.822-4.883,1.19l-0.962,0.227
	c-1.82,0.42-3.658,0.823-5.478,1.19l-0.823,0.175c-1.785,0.35-3.57,0.7-5.355,1.015l-0.717,0.14
	c-1.873,0.333-3.745,0.63-5.635,0.928l-0.91,0.14c-1.89,0.28-3.815,0.56-5.723,0.805l-0.175,0.017l-0.122,0.017
	c-1.995,0.263-3.99,0.49-6.003,0.683l-0.578,0.07c-2.03,0.192-4.06,0.385-6.108,0.542l-0.28,0.018
	c-2.013,0.14-4.043,0.28-6.073,0.385l-0.438,0.018c-2.065,0.105-4.13,0.175-6.213,0.245h-0.455c-2.1,0.052-4.218,0.087-6.353,0.087
	c-4.34,0-8.645-0.105-12.933-0.332l-0.455-0.018c-1.995-0.105-3.99-0.227-5.968-0.385l-0.665-0.053
	c-1.803-0.14-3.605-0.297-5.39-0.473l-1.523-0.158c-1.558-0.158-3.115-0.332-4.655-0.525l-2.188-0.28
	c-1.225-0.158-2.45-0.332-3.693-0.525c-1.12-0.158-2.258-0.333-3.378-0.508l-2.083-0.35l-0.84-0.14l-3.378-0.613l-2.468-0.473
	c-1.173-0.228-2.328-0.455-3.5-0.7l-0.84-0.193l-0.84-0.175l-0.84-0.193l-95.183-95.183l55.773-55.755l-55.773-55.773l55.773-55.773
	l-55.773-55.773l86.398-86.38l18.655,18.655h196.596l103.058,103.058c1.4,10.815,2.117,21.823,2.117,33.005
	C512,342.687,468.897,419.32,402.957,465.625L402.957,465.625z"/>
<g>
	<polygon style="fill:#FAD55C;" points="105.176,212.801 191.573,212.801 191.573,299.199 105.176,299.199 	"/>
	<polygon style="fill:#FAD55C;" points="105.176,324.347 191.573,324.347 191.573,410.727 105.176,410.727 	"/>
</g>
<polygon style="fill:#FFFFFF;" points="105.176,101.273 191.573,101.273 191.573,187.653 105.176,187.653 "/>
<g>
	<path style="fill:#F8F8F8;" d="M287.229,119.928h119.596v16.748H287.229V119.928z M287.229,152.233h119.596v16.765H287.229V152.233
		z M206.571,152.233h62.843v16.765h-62.843V152.233z M206.571,119.928h62.843v16.748h-62.843V119.928z"/>
	<path style="fill:#F8F8F8;" d="M287.229,231.456h119.596v16.765H287.229V231.456z M287.229,263.779h119.596v16.748H287.229V263.779
		z M206.571,263.779h62.843v16.748h-62.843V263.779z M206.571,231.456h62.843v16.765h-62.843V231.456z"/>
	<path style="fill:#F8F8F8;" d="M287.229,343.002h119.596v16.765H287.229V343.002z M287.229,375.307h119.596v16.765H287.229V375.307
		z M206.571,375.307h62.843v16.765h-62.843V375.307z M206.571,343.002h62.843v16.765h-62.843V343.002z"/>
</g>
<polygon style="fill:#FAD55C;" points="105.176,101.273 191.573,101.273 191.573,187.653 105.176,187.653 "/>
<g>
</g>
<g>
</g>
<g>
</g>
<g>
</g>
<g>
</g>
<g>
</g>
<g>
</g>
<g>
</g>
<g>
</g>
<g>
</g>
<g>
</g>
<g>
</g>
<g>
</g>
<g>
</g>
<g>
</g>
</svg>
