<?xml version="1.0" encoding="iso-8859-1"?>
<!-- Generator: Adobe Illustrator 21.0.0, SVG Export Plug-In . SVG Version: 6.00 Build 0)  -->
<svg xmlns="http://www.w3.org/2000/svg" xmlns:xlink="http://www.w3.org/1999/xlink" version="1.1" id="Capa_1" x="0px" y="0px" viewBox="0 0 512 512" style="enable-background:new 0 0 512 512;" xml:space="preserve" width="512" height="512">
<g>
	<circle style="fill:#E9336D;" cx="256" cy="256" r="256"/>
	<path style="fill:#B12E65;" d="M511.953,259.71L404.2,151.957h-14.656l-39-39.268l-40.227,64.84l-21.808-22h-15.642l-21-21.013   l-17.498,21.013h-52.576l-21-21.013l-52.999,261.796l113.312,113.312C232.518,511.178,244.163,512,256,512   C396.145,512,509.966,399.382,511.953,259.71z"/>
	<g>
		<rect x="333.046" y="112.689" style="fill:#D65A2F;" width="17.497" height="31.676"/>
		<rect x="341.789" y="112.689" style="fill:#A03914;" width="8.755" height="31.676"/>
		<polygon style="fill:#A03914;" points="404.2,203.832 386.703,203.832 386.703,169.454 364.52,169.454 364.52,151.957     404.2,151.957   "/>
		<rect x="107.796" y="155.529" style="fill:#91F5E7;" width="180.714" height="240.783"/>
		<rect x="198.153" y="155.529" style="fill:#00E3DF;" width="90.357" height="240.783"/>
		<polygon style="fill:#0099FC;" points="373.267,137.069 373.261,257.941 373.261,267.104 372.865,275.439 367.137,396.311     316.447,396.311 310.731,275.439 310.317,266.69 310.317,137.069   "/>
		<rect x="143.297" y="134.515" style="fill:#8F97AF;" width="17.497" height="43.379"/>
		<rect x="234.37" y="134.515" style="fill:#7A869A;" width="17.497" height="43.379"/>
		<rect x="152.618" y="213.69" style="fill:#00B5FF;" width="91.068" height="17.497"/>
		<rect x="152.618" y="255.013" style="fill:#00B5FF;" width="91.068" height="17.497"/>
		<rect x="152.618" y="296.331" style="fill:#00B5FF;" width="91.068" height="17.497"/>
		<rect x="198.153" y="213.69" style="fill:#0099FC;" width="45.534" height="17.497"/>
		<rect x="198.153" y="255.013" style="fill:#0099FC;" width="45.534" height="17.497"/>
		<rect x="198.153" y="296.331" style="fill:#0099FC;" width="45.534" height="17.497"/>
		<polygon style="fill:#0065F9;" points="373.267,137.069 373.261,257.941 373.261,267.104 372.865,275.439 367.137,396.311     341.789,396.311 341.789,137.069   "/>
		<polygon style="fill:#FFAF3E;" points="373.261,257.941 373.261,267.104 372.865,275.439 310.731,275.439 310.317,266.69     310.317,257.941   "/>
		<polygon style="fill:#FF9500;" points="373.261,257.941 373.261,267.104 372.865,275.439 341.789,275.439 341.789,257.941   "/>
	</g>
</g>















</svg>
