<?xml version="1.0" encoding="UTF-8" standalone="no"?>
<svg
   xmlns:dc="http://purl.org/dc/elements/1.1/"
   xmlns:cc="http://creativecommons.org/ns#"
   xmlns:rdf="http://www.w3.org/1999/02/22-rdf-syntax-ns#"
   xmlns:svg="http://www.w3.org/2000/svg"
   xmlns="http://www.w3.org/2000/svg"
   xmlns:xlink="http://www.w3.org/1999/xlink"
   xmlns:sodipodi="http://sodipodi.sourceforge.net/DTD/sodipodi-0.dtd"
   xmlns:inkscape="http://www.inkscape.org/namespaces/inkscape"
   height="480pt"
   viewBox="0 0 480 480"
   width="480pt"
   version="1.1"
   id="svg74"
   sodipodi:docname="dinner-table.svg"
   inkscape:version="0.92.4 (5da689c313, 2019-01-14)">
  <metadata
     id="metadata80">
    <rdf:RDF>
      <cc:Work
         rdf:about="">
        <dc:format>image/svg+xml</dc:format>
        <dc:type
           rdf:resource="http://purl.org/dc/dcmitype/StillImage" />
      </cc:Work>
    </rdf:RDF>
  </metadata>
  <defs
     id="defs78">
    <linearGradient
       inkscape:collect="always"
       id="linearGradient940">
      <stop
         style="stop-color:#338000;stop-opacity:1;"
         offset="0"
         id="stop936" />
      <stop
         style="stop-color:#338000;stop-opacity:0;"
         offset="1"
         id="stop938" />
    </linearGradient>
    <linearGradient
       inkscape:collect="always"
       xlink:href="#linearGradient940"
       id="linearGradient942"
       x1="566.77966"
       y1="509.83051"
       x2="226.37289"
       y2="303.85788"
       gradientUnits="userSpaceOnUse" />
  </defs>
  <sodipodi:namedview
     pagecolor="#ffffff"
     bordercolor="#666666"
     borderopacity="1"
     objecttolerance="10"
     gridtolerance="10"
     guidetolerance="10"
     inkscape:pageopacity="0"
     inkscape:pageshadow="2"
     inkscape:window-width="1920"
     inkscape:window-height="996"
     id="namedview76"
     showgrid="false"
     inkscape:zoom="0.36875"
     inkscape:cx="187.11864"
     inkscape:cy="320"
     inkscape:window-x="0"
     inkscape:window-y="48"
     inkscape:window-maximized="1"
     inkscape:current-layer="svg74" />
  <g
     id="g983"
     transform="matrix(1.0086957,0,0,1.0086957,-2.0953575,-2.0831983)">
    <circle
       r="233.8983"
       cy="239.56779"
       cx="240.96611"
       id="path122"
       style="opacity:1;fill:#00d400;stroke-width:0.73093218" />
    <path
       transform="scale(0.75)"
       id="path934"
       d="M 633.125,319.97461 327.61523,142.24805 201.0625,426.99414 424.16406,613.45898 A 311.8644,311.8644 0 0 0 633.125,319.97461 Z"
       style="opacity:0.456;fill:url(#linearGradient942);fill-opacity:1;stroke:none;stroke-width:0.97457623"
       inkscape:connector-curvature="0" />
    <g
       transform="matrix(0.59322034,0,0,0.59322034,98.593229,97.194913)"
       id="g118">
      <g
         style="fill:#fcbc04"
         id="g16">
        <path
           inkscape:connector-curvature="0"
           d="m 96,296 h 288 v 32 H 96 Z m 0,0"
           id="path2" />
        <path
           inkscape:connector-curvature="0"
           d="m 8,376 h 112 v 32 H 8 Z m 0,0"
           id="path4" />
        <path
           inkscape:connector-curvature="0"
           d="m 8,280 h 32 v 96 H 8 Z m 0,0"
           id="path6" />
        <path
           inkscape:connector-curvature="0"
           d="m 256,328 -8,48 h -16 l -8,-48 h -32 l 16,112 h 64 l 16,-112 z m 0,0"
           id="path8" />
        <path
           inkscape:connector-curvature="0"
           d="m 200,440 h 80 c 17.67187,0 32,14.32812 32,32 H 168 c 0,-17.67188 14.32812,-32 32,-32 z m 0,0"
           id="path10" />
        <path
           inkscape:connector-curvature="0"
           d="M 472,408 H 360 v -32 h 112 z m 0,0"
           id="path12" />
        <path
           inkscape:connector-curvature="0"
           d="m 472,376 h -32 v -96 h 32 z m 0,0"
           id="path14" />
      </g>
      <path
         style="fill:#57b7eb"
         inkscape:connector-curvature="0"
         d="m 368,248 h -48 l 8,48 h 32 z m 0,0"
         id="path18" />
      <path
         style="fill:#57b7eb"
         inkscape:connector-curvature="0"
         d="m 112,248 h 48 l -8,48 h -32 z m 0,0"
         id="path20" />
      <path
         style="fill:#fcbc04"
         inkscape:connector-curvature="0"
         d="m 192,56 h 96 c 13.25391,0 24,10.746094 24,24 V 96 H 168 V 80 c 0,-13.253906 10.74609,-24 24,-24 z m 0,0"
         id="path22" />
      <path
         style="fill:#4891d3"
         inkscape:connector-curvature="0"
         d="m 224,24 h 32 c 8.83594,0 16,7.164062 16,16 V 56 H 208 V 40 c 0,-8.835938 7.16406,-16 16,-16 z m 0,0"
         id="path24" />
      <path
         style="fill:#f9e109"
         inkscape:connector-curvature="0"
         d="m 192,56 h 96 c 13.25391,0 24,10.746094 24,24 H 216 C 202.74609,80 192,69.253906 192,56 Z m 0,0"
         id="path26" />
      <path
         style="fill:#57b7eb"
         inkscape:connector-curvature="0"
         d="m 224,24 h 32 c 8.83594,0 16,7.164062 16,16 h -32 c -8.83594,0 -16,-7.164062 -16,-16 z m 0,0"
         id="path28" />
      <path
         style="fill:#f9e109"
         inkscape:connector-curvature="0"
         d="m 120,296 h 272 v 16 H 136 c -8.83594,0 -16,-7.16406 -16,-16 z m 0,0"
         id="path30" />
      <path
         style="fill:#e59730"
         inkscape:connector-curvature="0"
         d="m 266.64062,360 c 0.85547,-4.66406 4.9375,-8.03906 9.67969,-8 h 8 L 288,328 h -32 l -8,48 c 9.30859,-0.008 17.21875,-6.80078 18.64062,-16 z m 0,0"
         id="path32" />
      <path
         style="fill:#e59730"
         inkscape:connector-curvature="0"
         d="m 219.92187,411.67969 -6.16015,-43.28125 c -0.45703,-4.0586 0.83594,-8.1211 3.55078,-11.17188 2.71875,-3.05078 6.60156,-4.80469 10.6875,-4.82812 L 224,328 h -32 l 16,112 h 64 l 2.32031,-16 h -40 c -7.19531,0.0391 -13.32812,-5.20703 -14.39844,-12.32031 z m 0,0"
         id="path34" />
      <path
         style="fill:#f9e109"
         inkscape:connector-curvature="0"
         d="m 200,456 h 80 c 11.39062,0.0391 21.90234,6.13281 27.60156,16 H 312 c 0,-17.67188 -14.32813,-32 -32,-32 h -80 c -17.67188,0 -32,14.32812 -32,32 h 4.39844 C 178.09766,462.13281 188.60937,456.03906 200,456 Z m 0,0"
         id="path36" />
      <path
         style="fill:#f9e109"
         inkscape:connector-curvature="0"
         d="m 456,280 h 16 v 72 c -8.83594,0 -16,-7.16406 -16,-16 z m 0,0"
         id="path38" />
      <path
         style="fill:#f9e109"
         inkscape:connector-curvature="0"
         d="m 360,376 h 56 c 0,8.83594 -7.16406,16 -16,16 h -40 z m 0,0"
         id="path40" />
      <path
         style="fill:#f9e109"
         inkscape:connector-curvature="0"
         d="m 24,280 h 16 v 80 c -8.835938,0 -16,-7.16406 -16,-16 z m 0,0"
         id="path42" />
      <path
         style="fill:#f9e109"
         inkscape:connector-curvature="0"
         d="m 40,376 h 48 c 0,8.83594 -7.164062,16 -16,16 H 56 c -8.835938,0 -16,-7.16406 -16,-16 z m 0,0"
         id="path44" />
      <path
         style="fill:#4891d3"
         inkscape:connector-curvature="0"
         d="m 357.51953,280 c -7.89844,0.10937 -14.69531,-5.56641 -16,-13.35938 L 338.64062,248 H 320 l 8,48 h 32 l 2.64062,-16 z m 0,0"
         id="path46" />
      <path
         style="fill:#4891d3"
         inkscape:connector-curvature="0"
         d="m 149.51953,280 c -7.89844,0.10937 -14.69531,-5.56641 -16,-13.35938 L 130.64062,248 H 112 l 8,48 h 32 l 2.64062,-16 z m 0,0"
         id="path48" />
      <path
         style="fill:#d0d8da"
         inkscape:connector-curvature="0"
         d="m 272,256 c -0.0391,-11.39063 -6.13281,-21.90234 -16,-27.60156 V 208 h -32 v 20.39844 c -8.20313,4.8125 -13.84375,13.01953 -15.39063,22.40625 -1.54687,9.38281 1.16407,18.96875 7.39063,26.15625 V 296 h 48 v -19.03906 c 5.10937,-5.79297 7.94922,-13.23828 8,-20.96094 z m 0,0"
         id="path50" />
      <path
         style="fill:#c4f236"
         inkscape:connector-curvature="0"
         d="m 264,176 h 24 c 0,17.67187 -14.32813,32 -32,32 h -16 v -8 c 0,-13.25391 10.74609,-24 24,-24 z m 0,0"
         id="path52" />
      <path
         style="fill:#c4f236"
         inkscape:connector-curvature="0"
         d="m 240,208 h -16 c -17.67188,0 -32,-14.32813 -32,-32 h 24 c 13.25391,0 24,10.74609 24,24 z m 0,0"
         id="path54" />
      <path
         style="fill:#c4f236"
         inkscape:connector-curvature="0"
         d="m 237.625,188.3125 -11.3125,-11.31641 c -12.49609,-12.49609 -12.49609,-32.75781 0,-45.2539 l 16.96875,16.97265 c 9.375,9.3711 9.375,24.56641 0,33.9375 z m 0,0"
         id="path56" />
      <path
         style="fill:#93999a"
         inkscape:connector-curvature="0"
         d="m 232,276.96094 c -6.22656,-7.1875 -8.9375,-16.77344 -7.39063,-26.15625 1.54688,-9.38672 7.1875,-17.59375 15.39063,-22.40625 V 224 h 16 v -16 h -32 v 20.39844 c -8.20313,4.8125 -13.84375,13.01953 -15.39063,22.40625 -1.54687,9.38281 1.16407,18.96875 7.39063,26.15625 V 296 h 35.03906 C 240.54297,295.95703 232.04297,287.45703 232,276.96094 Z m 0,0"
         id="path58" />
      <path
         style="fill:#a1d51c"
         inkscape:connector-curvature="0"
         d="m 256,192 h -14.55859 c -0.9336,2.56641 -1.41797,5.26953 -1.44141,8 v 8 h 16 c 17.67187,0 32,-14.32813 32,-32 h -4.39844 C 277.90234,185.86719 267.39062,191.96094 256,192 Z m 0,0"
         id="path60" />
      <path
         style="fill:#a1d51c"
         inkscape:connector-curvature="0"
         d="m 224,192 c -11.39063,-0.0391 -21.90234,-6.13281 -27.60156,-16 H 192 c 0,17.67187 14.32812,32 32,32 h 16 v -8 c -0.0234,-2.73047 -0.50781,-5.43359 -1.44141,-8 z m 0,0"
         id="path62" />
      <path
         style="fill:#a1d51c"
         inkscape:connector-curvature="0"
         d="m 245.67969,172.32031 -11.35938,-11.35937 c -7.37109,-7.41407 -10.65625,-17.95703 -8.80078,-28.24219 -11.61328,12.58594 -11.26172,32.08594 0.80078,44.24219 l 11.35938,11.35937 5.60156,-5.67969 c 3.91797,-3.9375 6.34766,-9.11328 6.87891,-14.64062 z m 0,0"
         id="path64" />
      <path
         style="fill:#323232"
         inkscape:connector-curvature="0"
         d="M 120,368 H 16 v -80 h 16 v 56 c 0,4.41797 3.582031,8 8,8 4.417969,0 8,-3.58203 8,-8 v -64 c 0,-4.41797 -3.582031,-8 -8,-8 H 8 c -4.417969,0 -8,3.58203 -8,8 v 192 c 0,4.41797 3.582031,8 8,8 4.417969,0 8,-3.58203 8,-8 v -56 h 96 v 56 c 0,4.41797 3.58203,8 8,8 4.41797,0 8,-3.58203 8,-8 v -96 c 0,-4.41797 -3.58203,-8 -8,-8 z M 16,384 h 96 v 16 H 16 Z m 0,0"
         id="path66" />
      <path
         style="fill:#323232"
         inkscape:connector-curvature="0"
         d="m 281.19922,432 10.16015,-71.03906 c 0.6211,-4.41797 -2.46093,-8.50391 -6.8789,-9.1211 -4.41797,-0.61718 -8.5,2.46094 -9.1211,6.87891 L 265.03906,432 h -50.07812 l -13.76172,-96 h 16 L 224,377.28125 c 0.63281,3.91016 4.03516,6.76953 8,6.71875 h 16 c 3.96484,0.0508 7.36719,-2.80859 8,-6.71875 L 262.80078,336 H 384 c 4.41797,0 8,-3.58203 8,-8 v -32 c 0,-4.41797 -3.58203,-8 -8,-8 H 369.44141 L 376,249.28125 c 0.37109,-2.32813 -0.30469,-4.69922 -1.83984,-6.48047 C 372.62109,241 370.36719,239.97656 368,240 h -8 v -19.67969 l 20.39844,-13.67969 c 2.67578,-1.4375 4.30859,-4.26171 4.21484,-7.29687 -0.0898,-3.03516 -1.89453,-5.75391 -4.65234,-7.02344 -2.75781,-1.26562 -5.9961,-0.86328 -8.35938,1.03906 l -24,16 C 345.36328,210.83203 344.01563,213.32422 344,216 v 24 h -24 c -2.33984,0 -4.55859,1.02344 -6.07812,2.80078 -1.53907,1.78125 -2.21094,4.15234 -1.84375,6.48047 L 318.55859,288 H 272 v -8 c 5.23438,-6.90234 8.04688,-15.33594 8,-24 0,-12.58984 -5.92969,-24.44531 -16,-32 v -8.80078 c 18.625,-3.80078 32.00391,-20.1875 32,-39.19922 0,-4.41797 -3.58203,-8 -8,-8 h -24 c -1.98828,0.0117 -3.97266,0.22656 -5.92187,0.64062 0,-1.03906 0,-2 0,-2.96093 0.008,-8.48828 -3.35938,-16.63282 -9.35938,-22.64063 L 232,126.07812 c -1.49609,-1.52343 -3.54297,-2.39062 -5.67969,-2.39843 -2.10937,0.0312 -4.125,0.89453 -5.60156,2.39843 -10.9375,11.00782 -14.52344,27.34766 -9.19922,41.92188 H 192 c -4.41797,0 -8,3.58203 -8,8 -0.004,19.01172 13.375,35.39844 32,39.19922 V 224 c -10.07031,7.55469 -16,19.41016 -16,32 -0.0469,8.66406 2.76563,17.09766 8,24 v 8 H 161.44141 L 168,249.28125 c 0.37109,-2.32813 -0.30469,-4.69922 -1.83984,-6.48047 C 164.62109,241 162.36719,239.97656 160,240 h -24 v -24 c -0.0156,-2.67578 -1.36328,-5.16797 -3.60156,-6.64063 l -24,-16 c -3.63672,-1.95312 -8.16797,-0.8125 -10.449221,2.63282 -2.28125,3.4414 -1.566407,8.05468 1.652343,10.64843 L 120,220.32031 V 240 h -8 c -2.33984,0 -4.55859,1.02344 -6.07812,2.80078 -1.53907,1.78125 -2.21094,4.15234 -1.84375,6.48047 L 110.55859,288 H 96 c -4.417969,0 -8,3.58203 -8,8 v 32 c 0,4.41797 3.582031,8 8,8 h 89.03906 l 13.76172,96 c -21.62109,0.64844 -38.80859,18.36719 -38.80078,40 0,4.41797 3.58203,8 8,8 h 72 c 4.41797,0 8,-3.58203 8,-8 0,-4.41797 -3.58203,-8 -8,-8 H 177.35938 C 180.75,454.40625 189.82422,447.99609 200,448 h 80 c 10.17578,-0.004 19.25,6.40625 22.64063,16 H 272 c -4.41797,0 -8,3.58203 -8,8 0,4.41797 3.58203,8 8,8 h 40 c 4.41797,0 8,-3.58203 8,-8 0.008,-21.63281 -17.17969,-39.35156 -38.80078,-40 z m -40,-64 h -2.39844 l -5.35937,-32 h 13.11718 z m 88,-112 h 29.12109 l -5.35937,32 h -18.40235 z m -50.80078,-72 c -3.35938,9.51172 -12.3125,15.90234 -22.39844,16 h -8 c 0,-8.83594 7.16406,-16 16,-16 z m -51.35938,-40 10.40235,10.32031 c 2.99218,3.01953 4.66406,7.10547 4.63672,11.35938 -0.0156,4.12109 -1.6211,8.07422 -4.47657,11.03906 L 235.28125,174.80078 232,171.28125 C 224.8125,164.10156 222.92188,153.17578 227.28125,144 Z m -25.91797,40 H 216 c 3.06641,0.008 6.06641,0.89844 8.64063,2.55859 l 4.80078,4.80078 c 1.66015,2.57422 2.55078,5.57422 2.55859,8.64063 h -8 c -10.17578,0.004 -19.25,-6.40625 -22.64062,-16 z m 20.64063,88 c -4.63672,-5.38672 -6.64453,-12.55078 -5.48438,-19.5625 1.15625,-7.00781 5.36329,-13.14844 11.48438,-16.75781 2.48437,-1.4336 4.00781,-4.08985 4,-6.96094 V 216 h 16 v 12.39844 c -0.0117,2.87109 1.51172,5.52734 4,6.96093 6.26172,3.5586 10.59766,9.73829 11.80469,16.83985 1.21093,7.10156 -0.83203,14.37109 -5.56641,19.80078 -1.28516,1.45703 -1.99609,3.33594 -2,5.28125 V 288 H 224 V 276.96094 C 223.92188,275.125 223.21484,273.375 222,272 Z M 121.44141,256 h 29.11718 l -5.35937,32 H 126.80078 Z M 104,304 h 272 v 16 H 104 Z m 0,0"
         id="path68" />
      <path
         style="fill:#323232"
         inkscape:connector-curvature="0"
         d="m 472,312 c 4.41797,0 8,-3.58203 8,-8 v -24 c 0,-4.41797 -3.58203,-8 -8,-8 h -32 c -4.41797,0 -8,3.58203 -8,8 v 88 h -72 c -4.41797,0 -8,3.58203 -8,8 v 96 c 0,4.41797 3.58203,8 8,8 4.41797,0 8,-3.58203 8,-8 v -56 h 96 v 56 c 0,4.41797 3.58203,8 8,8 4.41797,0 8,-3.58203 8,-8 V 336 c 0,-4.41797 -3.58203,-8 -8,-8 -4.41797,0 -8,3.58203 -8,8 v 32 h -16 v -80 h 16 v 16 c 0,4.41797 3.58203,8 8,8 z m -8,88 h -96 v -16 h 96 z m 0,0"
         id="path70" />
      <path
         style="fill:#323232"
         inkscape:connector-curvature="0"
         d="m 168,104 h 144 c 4.41797,0 8,-3.58203 8,-8 V 80 C 320,62.328125 305.67187,48 288,48 h -8 V 40 C 280,26.746094 269.25391,16 256,16 h -8 V 8 c 0,-4.417969 -3.58203,-8 -8,-8 -4.41797,0 -8,3.582031 -8,8 v 8 h -8 c -13.25391,0 -24,10.746094 -24,24 v 8 h -8 c -17.67188,0 -32,14.328125 -32,32 v 16 c 0,4.41797 3.58203,8 8,8 z m 48,-64 c 0,-4.417969 3.58203,-8 8,-8 h 32 c 4.41797,0 8,3.582031 8,8 v 8 h -48 z m -40,40 c 0,-8.835938 7.16406,-16 16,-16 h 96 c 8.83594,0 16,7.164062 16,16 v 8 H 176 Z m 0,0"
         id="path72" />
    </g>
  </g>
</svg>
