<?xml version="1.0" encoding="iso-8859-1"?>
<!-- Generator: Adobe Illustrator 19.0.0, SVG Export Plug-In . SVG Version: 6.00 Build 0)  -->
<svg version="1.1" id="Layer_1" xmlns="http://www.w3.org/2000/svg" xmlns:xlink="http://www.w3.org/1999/xlink" x="0px" y="0px"
	 viewBox="0 0 496.2 496.2" style="enable-background:new 0 0 496.2 496.2;" xml:space="preserve">
<path style="fill:#A3D5E0;" d="M496.2,248.1C496.2,111.1,385.1,0,248.1,0S0,111.1,0,248.1s111.1,248.1,248.1,248.1
	S496.2,385.1,496.2,248.1z"/>
<ellipse style="fill:#846442;" cx="248.1" cy="335.4" rx="36.7" ry="14.7"/>
<g>
	<ellipse style="fill:#967247;" cx="248.1" cy="329.1" rx="25.2" ry="6.8"/>
	<path style="fill:#967247;" d="M272.6,327.5h-49c0,0,17.2-3.8,17.2-66.7S223.6,182,223.6,182h49c0,0-17.2,16.3-17.2,78.8
		S272.6,327.5,272.6,327.5z"/>
</g>
<path style="fill:#846442;" d="M366.3,169.4c0-12.8-52.9-23.3-118.2-23.3s-118.2,10.4-118.2,23.3c0,1,0,4.9,0,5.9
	c0,12.8,52.9,23.3,118.2,23.3s118.2-10.4,118.2-23.3C366.3,174.3,366.3,170.4,366.3,169.4z"/>
<ellipse style="fill:#AF875B;" cx="248.1" cy="169.4" rx="118.2" ry="23.3"/>
<ellipse style="fill:#BC936C;" cx="248.1" cy="169.4" rx="108.9" ry="18.5"/>
<g>
</g>
<g>
</g>
<g>
</g>
<g>
</g>
<g>
</g>
<g>
</g>
<g>
</g>
<g>
</g>
<g>
</g>
<g>
</g>
<g>
</g>
<g>
</g>
<g>
</g>
<g>
</g>
<g>
</g>
</svg>
